<svg xmlns="http://www.w3.org/2000/svg" xmlns:xlink="http://www.w3.org/1999/xlink" width="1920" height="1080" viewBox="0 0 1920 1080"><defs><linearGradient id="a" y1="-0.207" x2="0.758" y2="1.017" gradientUnits="objectBoundingBox"><stop offset="0" stop-color="#b945d5"/><stop offset="1" stop-color="#2d0063"/></linearGradient><linearGradient id="b" x1="1.026" y1="-0.028" x2="0.094" y2="1.239" gradientUnits="objectBoundingBox"><stop offset="0" stop-color="#ff848e"/><stop offset="1" stop-color="#4927a7"/></linearGradient><linearGradient id="c" x1="0.359" y1="-0.26" x2="1.615" y2="0.583" xlink:href="#b"/><clipPath id="e"><rect width="1920" height="1080"/></clipPath></defs><g id="d" clip-path="url(#e)"><rect width="1920" height="1080" fill="url(#a)"/><path d="M1990,193.019s41.158,130.659,302.476,160.355,295.466-31.477,351.886,102.151-37.115,185.893-72.75,352.187,525.606,276.166,525.606,276.166l-1134.36,77.208Z" transform="translate(-1990)" fill="url(#b)"/><path d="M3097.219,0s175.2,35.634,193.02,175.2-22.842,225-16.9,331.9,36.8,260.621,162.505,305.225,287.9,59.472,388.912,78.53S3976.2,1098.726,3976.2,1098.726V-83.147Z" transform="translate(-1990)" fill="url(#c)"/></g></svg>